<svg width="901" height="337.62643" xmlns="http://www.w3.org/2000/svg" xmlns:svg="http://www.w3.org/2000/svg">
 <metadata id="metadata6">image/svg+xml</metadata>
 <!-- xxx -->
 <g class="layer">
  <title>Layer 1</title>
  <path fill="#ffffff" stroke="#000000" id="path8" d="m0.5,0.5l60,0l0,60l-60,0l0,-60z"/>
  <path fill="#ffffff" stroke="#000000" id="path10" d="m60.5,0.5l60,0l0,60l-60,0l0,-60z"/>
  <path fill="#ffffff" stroke="#000000" id="path12" d="m120.5,0.5l60,0l0,60l-60,0l0,-60z"/>
  <path fill="#ffffff" stroke="#000000" id="path14" d="m180.5,0.5l60,0l0,60l-60,0l0,-60z"/>
  <path fill="#ffffff" stroke="#000000" id="path16" d="m240.5,0.5l60,0l0,60l-60,0l0,-60z"/>
  <path fill="#ffffff" stroke="#000000" id="path18" d="m300.5,0.5l60,0l0,60l-60,0l0,-60z"/>
  <path fill="#ffffff" stroke="#000000" id="path20" d="m360.5,0.5l60,0l0,60l-60,0l0,-60z"/>
  <path fill="#ffffff" stroke="#000000" id="path22" d="m420.5,0.5l60,0l0,60l-60,0l0,-60z"/>
  <path fill="#ffffff" stroke="#000000" id="path24" d="m480.5,0.5l60,0l0,60l-60,0l0,-60z"/>
  <path fill="#ffffff" stroke="#000000" id="path26" d="m540.5,0.5l60,0l0,60l-60,0l0,-60z"/>
  <path fill="#ffffff" stroke="#000000" id="path28" d="m600.5,0.5l60,0l0,60l-60,0l0,-60z"/>
  <path fill="#ffffff" stroke="#000000" id="path30" d="m660.5,0.5l60,0l0,60l-60,0l0,-60z"/>
  <path fill="#ffffff" stroke="#000000" id="path32" d="m720.5,0.5l60,0l0,60l-60,0l0,-60z"/>
  <path fill="#bfbfbf" stroke="#000000" id="path34" d="m780.5,0.5l120,0l0,60l-120,0l0,-60z"/>
  <path fill="#dfdfdf" stroke="#000000" id="path36" d="m0.5,60.5l90,0l0,60l-90,0l0,-60z"/>
  <path fill="#ffffff" stroke="#000000" id="path38" d="m90.5,60.5l60,0l0,60l-60,0l0,-60z"/>
  <path fill="#ffffff" stroke="#000000" id="path40" d="m150.5,60.5l60,0l0,60l-60,0l0,-60z"/>
  <path fill="#ffffff" stroke="#000000" id="path42" d="m210.5,60.5l60,0l0,60l-60,0l0,-60z"/>
  <path fill="#ffffff" stroke="#000000" id="path44" d="m270.5,60.5l60,0l0,60l-60,0l0,-60z"/>
  <path fill="#00ff00" stroke="#000000" id="path46" d="m330.5,60.5l60,0l0,60l-60,0l0,-60z"/>
  <path fill="#ff0000" stroke="#000000" id="path48" d="m390.5,60.5l60,0l0,60l-60,0l0,-60z"/>
  <path fill="#ff0000" stroke="#000000" id="path50" d="m450.5,60.5l60,0l0,60l-60,0l0,-60z"/>
  <path fill="#00ff00" stroke="#000000" id="path52" d="m510.5,60.5l60,0l0,60l-60,0l0,-60z"/>
  <path fill="#ff0000" stroke="#000000" id="path54" d="m570.5,60.5l60,0l0,60l-60,0l0,-60z"/>
  <path fill="#00ff00" stroke="#000000" id="path56" d="m630.5,60.5l60,0l0,60l-60,0l0,-60z"/>
  <path fill="#00ff00" stroke="#000000" id="path58" d="m690.5,60.5l60,0l0,60l-60,0l0,-60z"/>
  <path fill="#ffffff" stroke="#000000" id="path60" d="m750.5,60.5l60,0l0,60l-60,0l0,-60z"/>
  <path fill="#bfbfbf" stroke="#000000" id="path62" d="m810.5,60.5l90,0l0,60l-90,0l0,-60z"/>
  <path fill="#dfdfdf" stroke="#000000" id="path64" d="m0.5,120.5l105,0l0,60l-105,0l0,-60z"/>
  <path fill="#ff0000" stroke="#000000" id="path66" d="m105.5,119.5l60,0l0,60l-60,0l0,-60z"/>
  <path fill="#00ffff" stroke="#000000" id="path68" d="m165.5,119.5l60,0l0,60l-60,0l0,-60z"/>
  <path fill="#ff0000" stroke="#000000" id="path70" d="m225.5,120.5l60,0l0,60l-60,0l0,-60z"/>
  <path fill="#00ff00" stroke="#000000" id="path72" d="m285.5,120.5l60,0l0,60l-60,0l0,-60z"/>
  <path fill="#00ff00" stroke="#000000" id="path74" d="m345.5,120.5l60,0l0,60l-60,0l0,-60z"/>
  <path fill="#bfbfbf" stroke="#000000" id="path76" d="m405.5,120.5l60,0l0,60l-60,0l0,-60z"/>
  <path fill="#ffff00" stroke="#000000" id="path78" d="m465.5,120.5l60,0l0,60l-60,0l0,-60z"/>
  <path fill="#00ff00" stroke="#000000" id="path80" d="m525.5,120.5l60,0l0,60l-60,0l0,-60z"/>
  <path fill="none" stroke="#000000" id="path82" d="m585.5,120.5l60,0l0,60l-60,0l0,-60z"/>
  <path fill="#ff00ff" stroke="#000000" id="path84" d="m645.5,120.5l60,0l0,60l-60,0l0,-60z"/>
  <path fill="#00ffff" stroke="#000000" id="path86" d="m705.5,120.5l60,0l0,60l-60,0l0,-60z"/>
  <path fill="#dfdfdf" stroke="#000000" id="path88" d="m765.5,120.5l135,0l0,60l-135,0l0,-60z"/>
  <path fill="#dfdfdf" stroke="#000000" id="path90" d="m0.5,180.5l135,0l0,60l-135,0l0,-60z"/>
  <path fill="#ffffff" stroke="#000000" id="path92" d="m135.5,180.5l60,0l0,60l-60,0l0,-60z"/>
  <path fill="#ffffff" stroke="#000000" id="path94" d="m195.5,180.5l60,0l0,60l-60,0l0,-60z"/>
  <path fill="#00ff00" stroke="#000000" id="path96" d="m255.5,180.5l60,0l0,60l-60,0l0,-60z"/>
  <path fill="#bfbfbf" stroke="#000000" id="path98" d="m315.5,180.5l60,0l0,60l-60,0l0,-60z"/>
  <path fill="#ffff00" stroke="#000000" id="path100" d="m375.5,180.5l60,0l0,60l-60,0l0,-60z"/>
  <path fill="#ff0000" stroke="#000000" id="path102" d="m435.5,180.5l60,0l0,60l-60,0l0,-60z"/>
  <path fill="#ff0000" stroke="#000000" id="path104" d="m495.5,180.5l60,0l0,60l-60,0l0,-60z"/>
  <path fill="#ffff00" stroke="#000000" id="path106" d="m555.5,180.5l60,0l0,60l-60,0l0,-60z"/>
  <path fill="#ff0000" stroke="#000000" id="path108" d="m615.5,180.5l60,0l0,60l-60,0l0,-60z"/>
  <path fill="#bfbfbf" stroke="#000000" id="path110" d="m675.5,180.5l60,0l0,60l-60,0l0,-60z"/>
  <path fill="#dfdfdf" stroke="#000000" id="path112" d="m735.5,180.5l165,0l0,60l-165,0l0,-60z"/>
  <path fill="#dfdfdf" stroke="#000000" id="path114" d="m0.5,240.5l90,0l0,60l-90,0l0,-60z"/>
  <path fill="#dfdfdf" stroke="#000000" id="path116" d="m810.5,240.5l90,0l0,60l-90,0l0,-60z"/>
  <path fill="#dfdfdf" stroke="#000000" id="path118" d="m150.5,240.5l90,0l0,60l-90,0l0,-60z"/>
  <path fill="#dfdfdf" stroke="#000000" id="path120" d="m600.5,240.5l90,0l0,60l-90,0l0,-60z"/>
  <path fill="#ffffff" stroke="#000000" id="path122" d="m240.5,240.5l360,0l0,60l-360,0l0,-60z"/>
  <path fill="#efefef" stroke="#000000" stroke-dashoffset="0" id="path124" stroke-miterlimit="4" d="m90.5,240.5l60,0l0,60l-60,0l0,-60z"/>
  <path fill="#efefef" stroke="#000000" stroke-dashoffset="0" id="path126" stroke-miterlimit="4" d="m690.5,240.5l60,0l0,60l-60,0l0,-60z"/>
  <path fill="#efefef" stroke="#000000" stroke-dashoffset="0" id="path128" stroke-miterlimit="4" d="m750.5,240.5l60,0l0,60l-60,0l0,-60z"/>
  <path fill="#000000" id="path152" d="m714.74,147.4l12,0l0,2.39l-12,0l0,-2.39m2.71,21.95l0,-3.21l6.59,0l0,3.21l-6.59,0"/>
  <path fill="#000000" id="path154" d="m764.32,69.822l2.37,0l0,5.976l5.83,0l0,2.332l-5.83,0l0,6l-2.37,0l0,-6l-5.84,0l0,-2.332l5.84,0l0,-5.976m-5.84,38.498l14.04,0l0,2.33l-14.04,0l0,-2.33m0,-5.04l14.04,0l0,2.33l-14.04,0l0,-2.33"/>
  <path fill="#000000" id="path156" d="m11.57,96.102l0,-9.454l-3.4138,0l0,-2.054l9.1718,0l0,2.054l-3.39,0l0,9.454l-2.368,0m11.789,-1.055c-0.286,0.443 -0.661,0.781 -1.125,1.015c-0.463,0.23 -1.002,0.344 -1.617,0.344c-0.823,0 -1.458,-0.234 -1.906,-0.703c-0.443,-0.469 -0.664,-1.135 -0.664,-2c0,-0.802 0.221,-1.414 0.664,-1.836c0.448,-0.422 1.185,-0.711 2.211,-0.867c0.234,-0.036 0.542,-0.078 0.922,-0.125c0.963,-0.125 1.445,-0.404 1.445,-0.836c0,-0.344 -0.107,-0.588 -0.32,-0.734c-0.214,-0.151 -0.571,-0.227 -1.071,-0.227c-0.458,0 -0.809,0.091 -1.054,0.274c-0.245,0.182 -0.367,0.442 -0.367,0.781l0,0.125l-2.125,0l0,-0.156c0,-0.87 0.307,-1.553 0.921,-2.047c0.615,-0.5 1.464,-0.75 2.547,-0.75c1.188,0 2.097,0.205 2.727,0.617c0.635,0.411 0.953,1.005 0.953,1.781l0,4.828c0,0.354 0.036,0.62 0.109,0.797c0.073,0.172 0.196,0.302 0.368,0.391l0,0.383l-2.368,0c-0.078,-0.146 -0.138,-0.308 -0.179,-0.485c-0.042,-0.177 -0.065,-0.367 -0.071,-0.57m-0.039,-3.125c-0.369,0.172 -0.797,0.31 -1.281,0.414c-0.479,0.104 -0.727,0.159 -0.742,0.164c-0.401,0.115 -0.682,0.258 -0.844,0.43c-0.156,0.172 -0.234,0.409 -0.234,0.711c0,0.312 0.101,0.562 0.304,0.75c0.204,0.182 0.477,0.273 0.821,0.273c0.614,0 1.096,-0.172 1.445,-0.516c0.354,-0.349 0.531,-0.822 0.531,-1.421l0,-0.805m4.219,-7.328l2.211,0l0,4.07c0.281,-0.443 0.633,-0.776 1.055,-1c0.427,-0.229 0.911,-0.344 1.453,-0.344c1.026,0 1.864,0.425 2.515,1.274c0.651,0.844 0.977,1.942 0.977,3.297c0,1.343 -0.326,2.429 -0.977,3.257c-0.651,0.829 -1.5,1.243 -2.546,1.243c-0.547,0 -1.024,-0.115 -1.43,-0.344c-0.401,-0.229 -0.766,-0.594 -1.094,-1.094l0,1.149l-2.164,0l0,-11.508m5.953,7.203c0,-0.781 -0.164,-1.393 -0.492,-1.836c-0.328,-0.448 -0.779,-0.672 -1.352,-0.672c-0.604,0 -1.072,0.219 -1.406,0.656c-0.328,0.433 -0.492,1.05 -0.492,1.852c0,0.864 0.156,1.521 0.469,1.969c0.317,0.448 0.778,0.672 1.383,0.672c0.614,0 1.083,-0.224 1.406,-0.672c0.323,-0.453 0.484,-1.11 0.484,-1.969"/>
  <path fill="#000000" id="path158" d="m790.27,44.869l2.8,0c0.66,0 1.14,-0.12 1.45,-0.359c0.3,-0.24 0.45,-0.617 0.45,-1.133c0,-0.537 -0.15,-0.922 -0.45,-1.156c-0.29,-0.24 -0.78,-0.36 -1.47,-0.36l-2.78,0l0,3.008m0,-4.976l2.7,0c0.58,0 1.01,-0.099 1.28,-0.297c0.27,-0.203 0.41,-0.521 0.41,-0.953c0,-0.422 -0.14,-0.727 -0.4,-0.914c-0.26,-0.193 -0.7,-0.29 -1.31,-0.29l-2.68,0l0,2.454m-2.27,7.054l0,-11.508l5.42,0c1.18,0 2.07,0.25 2.69,0.75c0.62,0.495 0.93,1.217 0.93,2.165c0,0.583 -0.12,1.07 -0.34,1.46c-0.23,0.391 -0.58,0.693 -1.04,0.907c0.6,0.239 1.04,0.586 1.33,1.039c0.3,0.448 0.45,1.008 0.45,1.679c0,1.12 -0.37,1.985 -1.1,2.594c-0.73,0.61 -1.76,0.914 -3.1,0.914l-5.24,0m15.95,-1.054c-0.28,0.442 -0.66,0.781 -1.12,1.015c-0.47,0.229 -1,0.344 -1.62,0.344c-0.82,0 -1.46,-0.234 -1.91,-0.703c-0.44,-0.469 -0.66,-1.136 -0.66,-2c0,-0.802 0.22,-1.414 0.66,-1.836c0.45,-0.422 1.19,-0.711 2.22,-0.867c0.23,-0.037 0.54,-0.078 0.92,-0.125c0.96,-0.125 1.44,-0.404 1.44,-0.836c0,-0.344 -0.1,-0.589 -0.32,-0.735c-0.21,-0.151 -0.57,-0.226 -1.07,-0.226c-0.46,0 -0.81,0.091 -1.05,0.273c-0.25,0.183 -0.37,0.443 -0.37,0.782l0,0.125l-2.12,0l0,-0.157c0,-0.87 0.3,-1.552 0.92,-2.047c0.61,-0.5 1.46,-0.75 2.54,-0.75c1.19,0 2.1,0.206 2.73,0.618c0.64,0.411 0.95,1.005 0.95,1.781l0,4.828c0,0.354 0.04,0.62 0.11,0.797c0.08,0.172 0.2,0.302 0.37,0.39l0,0.383l-2.37,0c-0.08,-0.146 -0.13,-0.307 -0.18,-0.484c-0.04,-0.177 -0.06,-0.367 -0.07,-0.57m-0.04,-3.125c-0.37,0.171 -0.79,0.309 -1.28,0.414c-0.48,0.104 -0.72,0.158 -0.74,0.164c-0.4,0.114 -0.68,0.258 -0.84,0.429c-0.16,0.172 -0.24,0.409 -0.24,0.711c0,0.313 0.1,0.563 0.31,0.75c0.2,0.183 0.47,0.274 0.82,0.274c0.61,0 1.09,-0.172 1.44,-0.516c0.36,-0.349 0.53,-0.823 0.53,-1.422l0,-0.804m9.31,0.976l2.24,0c-0.09,1.078 -0.49,1.93 -1.18,2.555c-0.69,0.625 -1.58,0.937 -2.67,0.937c-1.23,0 -2.2,-0.401 -2.91,-1.203c-0.69,-0.807 -1.04,-1.922 -1.04,-3.344c0,-1.416 0.35,-2.526 1.07,-3.328c0.72,-0.807 1.7,-1.211 2.96,-1.211c1.1,0 1.98,0.292 2.64,0.875c0.66,0.584 1.04,1.396 1.12,2.438l-2.26,0c-0.07,-0.453 -0.22,-0.8 -0.48,-1.039c-0.25,-0.24 -0.59,-0.36 -1.01,-0.36c-0.56,0 -0.98,0.222 -1.26,0.665c-0.28,0.442 -0.42,1.106 -0.42,1.992c0,0.817 0.15,1.448 0.43,1.89c0.29,0.438 0.71,0.657 1.25,0.657c0.42,0 0.76,-0.128 1.02,-0.383c0.25,-0.255 0.42,-0.636 0.5,-1.141m3.73,3.203l0,-11.508l2.21,0l0,6.04l2.7,-3.024l2.73,0l-2.96,3.149l3.14,5.343l-2.72,0l-2.03,-3.617l-0.86,0.93l0,2.687l-2.21,0m8.35,-2.765l2.26,0c0.02,0.432 0.18,0.755 0.47,0.968c0.29,0.209 0.73,0.313 1.31,0.313c0.45,0 0.79,-0.073 1.03,-0.219c0.24,-0.151 0.36,-0.362 0.36,-0.633c0,-0.385 -0.45,-0.674 -1.35,-0.867c-0.37,-0.078 -0.67,-0.146 -0.89,-0.203c-1.1,-0.281 -1.87,-0.615 -2.3,-1c-0.43,-0.385 -0.64,-0.906 -0.64,-1.562c0,-0.87 0.31,-1.558 0.93,-2.063c0.63,-0.51 1.49,-0.766 2.56,-0.766c1.13,0 2.03,0.253 2.67,0.758c0.65,0.505 1,1.216 1.04,2.133l-2.21,0c-0.02,-0.359 -0.15,-0.638 -0.42,-0.836c-0.25,-0.198 -0.61,-0.297 -1.07,-0.297c-0.43,0 -0.75,0.065 -0.96,0.196c-0.21,0.13 -0.32,0.325 -0.32,0.585c0,0.339 0.57,0.638 1.7,0.899c0.26,0.057 0.46,0.104 0.62,0.141c1.13,0.265 1.9,0.585 2.31,0.96c0.42,0.375 0.62,0.904 0.62,1.586c0,0.964 -0.34,1.698 -1.02,2.204c-0.68,0.505 -1.66,0.757 -2.96,0.757c-1.17,0 -2.09,-0.263 -2.75,-0.789c-0.66,-0.526 -0.99,-1.25 -0.99,-2.172l0,-0.093m15.22,-1.43c0,-0.854 -0.16,-1.505 -0.48,-1.953c-0.32,-0.453 -0.79,-0.68 -1.41,-0.68c-0.6,0 -1.06,0.224 -1.38,0.672c-0.31,0.448 -0.47,1.102 -0.47,1.961c0,0.802 0.17,1.422 0.49,1.859c0.34,0.438 0.81,0.657 1.41,0.657c0.57,0 1.02,-0.224 1.35,-0.672c0.33,-0.448 0.49,-1.063 0.49,-1.844m-5.95,7.602l0,-11.899l2.16,0l0,1.149c0.33,-0.5 0.7,-0.865 1.1,-1.094c0.4,-0.229 0.88,-0.344 1.43,-0.344c1.04,0 1.89,0.414 2.54,1.242c0.66,0.823 0.98,1.906 0.98,3.25c0,1.36 -0.32,2.464 -0.98,3.313c-0.65,0.843 -1.48,1.265 -2.51,1.265c-0.54,0 -1.03,-0.114 -1.45,-0.343c-0.43,-0.23 -0.78,-0.563 -1.06,-1l0,4.461l-2.21,0m14.63,-4.461c-0.28,0.442 -0.66,0.781 -1.12,1.015c-0.47,0.229 -1,0.344 -1.62,0.344c-0.82,0 -1.46,-0.234 -1.91,-0.703c-0.44,-0.469 -0.66,-1.136 -0.66,-2c0,-0.802 0.22,-1.414 0.66,-1.836c0.45,-0.422 1.19,-0.711 2.22,-0.867c0.23,-0.037 0.54,-0.078 0.92,-0.125c0.96,-0.125 1.44,-0.404 1.44,-0.836c0,-0.344 -0.1,-0.589 -0.32,-0.735c-0.21,-0.151 -0.57,-0.226 -1.07,-0.226c-0.46,0 -0.81,0.091 -1.05,0.273c-0.25,0.183 -0.37,0.443 -0.37,0.782l0,0.125l-2.12,0l0,-0.157c0,-0.87 0.3,-1.552 0.92,-2.047c0.61,-0.5 1.46,-0.75 2.54,-0.75c1.19,0 2.1,0.206 2.73,0.618c0.64,0.411 0.95,1.005 0.95,1.781l0,4.828c0,0.354 0.04,0.62 0.11,0.797c0.08,0.172 0.2,0.302 0.37,0.39l0,0.383l-2.37,0c-0.08,-0.146 -0.13,-0.307 -0.18,-0.484c-0.04,-0.177 -0.06,-0.367 -0.07,-0.57m-0.04,-3.125c-0.37,0.171 -0.79,0.309 -1.28,0.414c-0.48,0.104 -0.72,0.158 -0.74,0.164c-0.4,0.114 -0.68,0.258 -0.84,0.429c-0.16,0.172 -0.24,0.409 -0.24,0.711c0,0.313 0.1,0.563 0.31,0.75c0.2,0.183 0.47,0.274 0.82,0.274c0.61,0 1.09,-0.172 1.44,-0.516c0.36,-0.349 0.53,-0.823 0.53,-1.422l0,-0.804m9.31,0.976l2.24,0c-0.09,1.078 -0.49,1.93 -1.18,2.555c-0.69,0.625 -1.58,0.937 -2.67,0.937c-1.24,0 -2.2,-0.401 -2.91,-1.203c-0.69,-0.807 -1.04,-1.922 -1.04,-3.344c0,-1.416 0.35,-2.526 1.07,-3.328c0.72,-0.807 1.7,-1.211 2.96,-1.211c1.1,0 1.98,0.292 2.64,0.875c0.66,0.584 1.04,1.396 1.12,2.438l-2.26,0c-0.07,-0.453 -0.22,-0.8 -0.48,-1.039c-0.25,-0.24 -0.59,-0.36 -1.01,-0.36c-0.56,0 -0.98,0.222 -1.26,0.665c-0.28,0.442 -0.42,1.106 -0.42,1.992c0,0.817 0.15,1.448 0.43,1.89c0.29,0.438 0.71,0.657 1.25,0.657c0.42,0 0.76,-0.128 1.02,-0.383c0.25,-0.255 0.42,-0.636 0.5,-1.141m8.91,0.625l2.27,0c-0.23,0.896 -0.69,1.599 -1.39,2.11c-0.69,0.505 -1.54,0.757 -2.54,0.757c-1.23,0 -2.2,-0.411 -2.92,-1.234c-0.72,-0.828 -1.08,-1.948 -1.08,-3.359c0,-1.391 0.35,-2.487 1.06,-3.289c0.71,-0.803 1.68,-1.204 2.91,-1.204c1.3,0 2.3,0.396 3.01,1.188c0.71,0.786 1.07,1.909 1.07,3.367c0,0.162 -0.01,0.284 -0.01,0.367c0,0.078 -0.01,0.154 -0.02,0.227l-5.67,0c0.03,0.666 0.19,1.169 0.48,1.508c0.3,0.338 0.73,0.507 1.28,0.507c0.39,0 0.71,-0.075 0.96,-0.226c0.25,-0.156 0.45,-0.396 0.59,-0.719m-3.31,-2.562l3.34,0c-0.02,-0.573 -0.17,-1.008 -0.46,-1.305c-0.28,-0.302 -0.68,-0.453 -1.22,-0.453c-0.49,0 -0.88,0.151 -1.17,0.453c-0.28,0.302 -0.44,0.737 -0.49,1.305"/>
  <path fill="none" stroke="#000000" stroke-width="3" id="path160" stroke-miterlimit="4" d="m840.5,18.146l-42.97,0"/>
  <path fill="#000000" id="path162" d="m803,25.646l0,-15l-15,7.5l15,7.5z"/>
  <path fill="#000000" id="path180" d="m212.9,200.03l-1.82,-1.79l1.94,-2.01l1.88,1.83c0.25,-0.47 0.44,-1.01 0.57,-1.61c0.13,-0.6 0.2,-1.26 0.2,-1.97c0,-1.9 -0.43,-3.37 -1.28,-4.42c-0.85,-1.05 -2.04,-1.58 -3.57,-1.58c-1.52,0 -2.7,0.53 -3.54,1.57c-0.84,1.05 -1.27,2.53 -1.27,4.43c0,1.9 0.43,3.38 1.27,4.43c0.84,1.05 2.02,1.57 3.54,1.57c0.39,0 0.76,-0.04 1.1,-0.11c0.35,-0.08 0.68,-0.2 0.98,-0.34m2.5,2.35c-0.59,0.39 -1.27,0.69 -2.05,0.89c-0.77,0.2 -1.62,0.31 -2.53,0.31c-2.58,0 -4.63,-0.82 -6.15,-2.46c-1.52,-1.65 -2.28,-3.86 -2.28,-6.64c0,-2.79 0.76,-5 2.28,-6.63c1.52,-1.64 3.57,-2.46 6.15,-2.46c2.58,0 4.63,0.82 6.15,2.46c1.53,1.64 2.3,3.85 2.3,6.63c0,1.22 -0.16,2.34 -0.47,3.35c-0.31,1.01 -0.77,1.89 -1.38,2.65l1.87,1.8l-1.92,2.01l-1.97,-1.91"/>
  <path fill="#000000" id="path182" d="m564.55,204.13l-4.94,-17.26l3.68,0l2.95,12.18l2.5,-12.18l3.78,0l2.5,12.18l2.95,-12.18l3.65,0l-4.94,17.26l-3.39,0l-2.67,-13.22l-2.68,13.22l-3.39,0"/>
  <path fill="#000000" id="path184" d="m234.42,144.13l0,-17.26l12.53,0l0,3l-9.02,0l0,3.68l8.25,0l0,2.95l-8.25,0l0,4.44l9.44,0l0,3.19l-12.95,0"/>
  <path fill="#000000" id="path186" d="m582.05,74.416l4.17,0c0.9,0 1.57,-0.184 1.99,-0.551c0.43,-0.367 0.64,-0.945 0.64,-1.734c0,-0.75 -0.2,-1.317 -0.62,-1.699c-0.41,-0.391 -1.03,-0.586 -1.85,-0.586l-4.33,0l0,4.57m-3.56,9.715l0,-17.262l8.37,0c1.88,0 3.28,0.403 4.19,1.207c0.9,0.805 1.35,2.035 1.35,3.692c0,1.054 -0.22,1.933 -0.66,2.636c-0.44,0.703 -1.07,1.184 -1.9,1.442c0.75,0.265 1.28,0.672 1.59,1.218c0.32,0.547 0.51,1.399 0.55,2.555l0.07,2.039l0,0.071c0.03,1.031 0.25,1.656 0.67,1.875l0,0.527l-3.89,0c-0.12,-0.242 -0.22,-0.539 -0.29,-0.891c-0.07,-0.359 -0.1,-0.785 -0.12,-1.277l-0.05,-1.817c-0.04,-1.07 -0.24,-1.792 -0.61,-2.167c-0.36,-0.375 -1.01,-0.563 -1.95,-0.563l-3.76,0l0,6.715l-3.56,0"/>
  <path fill="#000000" id="path188" d="m538.51,144.13l0,-14.18l-5.12,0l0,-3.08l13.75,0l0,3.08l-5.08,0l0,14.18l-3.55,0"/>
  <path fill="#000000" id="path190" d="m347.95,84.131l-3.55,0l0,-6.434l-6.27,-10.828l4.35,0l3.69,7.442l3.41,-7.442l4.06,0l-5.69,10.828l0,6.434"/>
  <path fill="#000000" id="path192" d="m293.97,126.34l3.58,0l0,10.83c0,1.34 0.27,2.31 0.8,2.93c0.53,0.61 1.37,0.91 2.53,0.91c1.17,0 2.02,-0.3 2.56,-0.91c0.53,-0.61 0.8,-1.59 0.8,-2.93l0,-10.83l3.56,0l0,11.22c0,2.11 -0.6,3.74 -1.79,4.87c-1.18,1.13 -2.88,1.7 -5.11,1.7c-2.24,0 -3.96,-0.56 -5.15,-1.69c-1.19,-1.13 -1.78,-2.76 -1.78,-4.88l0,-11.22"/>
  <path fill="#000000" id="path194" d="m358.77,144.13l0,-17.26l3.55,0l0,17.26l-3.55,0"/>
  <path fill="#000000" id="path196" d="m176.08,135.04c0,1.9 0.43,3.37 1.27,4.43c0.84,1.04 2.02,1.57 3.54,1.57c1.53,0 2.72,-0.53 3.57,-1.57c0.86,-1.06 1.28,-2.53 1.28,-4.43c0,-1.9 -0.42,-3.37 -1.28,-4.42c-0.85,-1.06 -2.04,-1.58 -3.57,-1.58c-1.52,0 -2.7,0.52 -3.54,1.57c-0.84,1.04 -1.27,2.52 -1.27,4.43m-3.62,0c0,-2.79 0.76,-5 2.28,-6.64c1.52,-1.64 3.57,-2.46 6.15,-2.46c2.58,0 4.63,0.82 6.15,2.46c1.53,1.65 2.3,3.86 2.3,6.64c0,2.78 -0.77,4.99 -2.3,6.63c-1.52,1.64 -3.57,2.46 -6.15,2.46c-2.58,0 -4.63,-0.82 -6.15,-2.46c-1.52,-1.64 -2.28,-3.85 -2.28,-6.63"/>
  <path fill="#000000" id="path198" d="m282.42,74.861l3.43,0c0.93,0 1.6,-0.195 2.03,-0.586c0.42,-0.398 0.63,-1.035 0.63,-1.91c0,-0.82 -0.21,-1.441 -0.62,-1.863c-0.42,-0.422 -1.03,-0.633 -1.85,-0.633l-3.62,0l0,4.992m-0.03,3.129l0,6.141l-3.55,0l0,-17.262l7.68,0c1.81,0 3.18,0.473 4.11,1.418c0.94,0.938 1.41,2.317 1.41,4.137c0,1.781 -0.46,3.156 -1.37,4.125c-0.92,0.961 -2.22,1.441 -3.92,1.441l-4.36,0"/>
  <path fill="#000000" id="path204" d="m824.3,65.791l2.41,0l0,24l-2.41,0l0,-24m3.3,50.569l-5.81,-19.937l1.58,0l5.84,19.937l-1.61,0"/>
  <path fill="#000000" id="path214" d="m120.47,130.33l-2.39,7.34l4.79,0l-2.4,-7.34m-2.06,-3.46l4.1,0l6.22,17.26l-3.72,0l-1.18,-3.55l-6.69,0l-1.13,3.55l-3.74,0l6.14,-17.26"/>
  <path fill="#000000" id="path216" d="m653.61,138.79l3.51,0c0.13,0.95 0.52,1.65 1.16,2.11c0.64,0.46 1.56,0.68 2.77,0.68c1.04,0 1.81,-0.18 2.34,-0.55c0.52,-0.37 0.78,-0.91 0.78,-1.63c0,-1.04 -1.5,-1.91 -4.51,-2.6c-0.04,-0.01 -0.07,-0.01 -0.11,-0.02c-0.07,-0.02 -0.19,-0.05 -0.36,-0.08c-1.61,-0.36 -2.76,-0.75 -3.44,-1.19c-0.61,-0.39 -1.08,-0.91 -1.4,-1.57c-0.32,-0.66 -0.48,-1.44 -0.48,-2.34c0,-1.68 0.57,-2.97 1.71,-3.86c1.14,-0.9 2.79,-1.35 4.95,-1.35c2.01,0 3.59,0.48 4.72,1.43c1.14,0.96 1.74,2.3 1.8,4.04l-3.41,0c-0.06,-0.84 -0.38,-1.48 -0.96,-1.91c-0.57,-0.44 -1.4,-0.66 -2.47,-0.66c-0.93,0 -1.65,0.18 -2.16,0.55c-0.5,0.36 -0.75,0.87 -0.75,1.55c0,0.91 0.98,1.59 2.95,2.05c0.53,0.12 0.94,0.22 1.24,0.29c1.26,0.32 2.15,0.57 2.67,0.75c0.53,0.18 0.99,0.38 1.38,0.6c0.71,0.39 1.23,0.91 1.58,1.56c0.36,0.64 0.53,1.41 0.53,2.31c0,1.79 -0.6,3.19 -1.81,4.18c-1.22,0.98 -2.92,1.48 -5.13,1.48c-2.17,0 -3.87,-0.51 -5.1,-1.52c-1.24,-1 -1.9,-2.44 -2,-4.3"/>
  <path fill="#000000" id="path218" d="m416.86,141.01l2.85,0c1.65,0 2.84,-0.43 3.57,-1.29c0.75,-0.86 1.12,-2.26 1.12,-4.2c0,-1.93 -0.35,-3.35 -1.03,-4.26c-0.69,-0.9 -1.77,-1.36 -3.23,-1.36l-3.28,0l0,11.11m-3.48,3.12l0,-17.26l6.76,0c2.65,0 4.62,0.71 5.92,2.14c1.31,1.43 1.96,3.6 1.96,6.51c0,1.58 -0.24,2.97 -0.73,4.17c-0.47,1.2 -1.17,2.17 -2.08,2.91c-0.69,0.54 -1.47,0.94 -2.35,1.18c-0.87,0.23 -2.1,0.35 -3.68,0.35l-5.8,0"/>
  <path fill="#000000" id="path220" d="m399.55,84.131l0,-17.262l12.05,0l0,3l-8.54,0l0,3.914l7.48,0l0,3l-7.48,0l0,7.348l-3.51,0"/>
  <path fill="#000000" id="path222" d="m471.02,81.611c-0.64,0.868 -1.37,1.504 -2.19,1.911c-0.81,0.406 -1.77,0.609 -2.87,0.609c-2.41,0 -4.37,-0.836 -5.87,-2.508c-1.49,-1.679 -2.24,-3.883 -2.24,-6.609c0,-2.75 0.75,-4.949 2.24,-6.598c1.49,-1.648 3.48,-2.472 5.96,-2.472c2.17,0 3.93,0.519 5.3,1.558c1.37,1.031 2.18,2.453 2.44,4.266l-3.62,0c-0.22,-0.899 -0.67,-1.582 -1.35,-2.051c-0.67,-0.469 -1.55,-0.703 -2.64,-0.703c-1.44,0 -2.58,0.531 -3.41,1.594c-0.82,1.054 -1.23,2.515 -1.23,4.382c0,1.875 0.43,3.344 1.29,4.407c0.86,1.062 2.04,1.593 3.54,1.593c1.12,0 2.07,-0.332 2.82,-0.996c0.76,-0.664 1.23,-1.574 1.41,-2.73l-3.91,0l0,-2.953l7.14,0l0,9.34l-2.37,0l-0.44,-2.04"/>
  <path fill="#000000" id="path224" d="m473.32,144.13l0,-17.26l3.57,0l0,6.43l7.13,0l0,-6.43l3.57,0l0,17.26l-3.57,0l0,-7.65l-7.13,0l0,7.65l-3.57,0"/>
  <path fill="#000000" id="path226" d="m264.97,197.22l3.44,0l0,2.08c0,0.6 0.18,1.07 0.54,1.39c0.35,0.31 0.87,0.46 1.54,0.46c0.74,0 1.25,-0.19 1.54,-0.57c0.29,-0.38 0.43,-1.1 0.43,-2.16l0,-12.03l3.55,0l0,12.2c0,1.09 -0.06,1.9 -0.2,2.41c-0.12,0.51 -0.33,0.96 -0.63,1.35c-0.45,0.58 -1.07,1.02 -1.86,1.32c-0.79,0.31 -1.72,0.46 -2.78,0.46c-0.98,0 -1.84,-0.13 -2.59,-0.4c-0.75,-0.26 -1.38,-0.66 -1.88,-1.18c-0.39,-0.42 -0.68,-0.89 -0.85,-1.41c-0.17,-0.52 -0.25,-1.38 -0.25,-2.58l0,-1.34"/>
  <path fill="#000000" id="path228" d="m323.49,204.13l0,-17.26l3.55,0l0,7.09l6.74,-7.09l4.44,0l-6.89,6.98l7.52,10.28l-4.34,0l-5.63,-7.9l-1.84,1.83l0,6.07l-3.55,0"/>
  <path fill="#000000" id="path230" d="m639.56,84.131l0,-17.262l3.55,0l0,14.075l8.43,0l0,3.187l-11.98,0"/>
  <path fill="#000000" id="path232" d="m683.57,204.13l0,-3l9.39,-11.13l-9.2,0l0,-3.13l13.51,0l0,3l-9.41,11.14l9.2,0l0,3.12l-13.49,0"/>
  <path fill="#000000" id="path234" d="m383.07,204.13l5.43,-8.81l-5.43,-8.45l4.1,0l3.53,6.03l3.5,-6.03l4.13,0l-5.43,8.42l5.43,8.84l-4.1,0l-3.53,-5.98l-3.53,5.98l-4.1,0"/>
  <path fill="#000000" id="path236" d="m533.43,77.721c-0.13,1.961 -0.89,3.519 -2.27,4.676c-1.38,1.156 -3.17,1.734 -5.39,1.734c-2.56,0 -4.54,-0.797 -5.97,-2.391c-1.41,-1.593 -2.12,-3.828 -2.12,-6.703c0,-2.937 0.73,-5.187 2.17,-6.75c1.45,-1.562 3.52,-2.343 6.23,-2.343c2.21,0 3.95,0.539 5.22,1.617c1.28,1.07 1.98,2.586 2.11,4.547l-3.5,0c-0.15,-0.977 -0.55,-1.719 -1.2,-2.227c-0.65,-0.516 -1.52,-0.773 -2.63,-0.773c-1.56,0 -2.75,0.503 -3.56,1.511c-0.81,1.008 -1.22,2.481 -1.22,4.418c0,1.875 0.41,3.324 1.21,4.348c0.81,1.023 1.97,1.535 3.46,1.535c1.08,0 1.96,-0.273 2.65,-0.82c0.68,-0.555 1.13,-1.348 1.33,-2.379l3.48,0"/>
  <path fill="#000000" id="path238" d="m629.28,204.13l-5.95,-17.26l3.94,0l3.66,12.91l3.74,-12.91l3.89,0l-5.88,17.26l-3.4,0"/>
  <path fill="#000000" id="path240" d="m447.11,201.01l4.21,0c0.99,0 1.71,-0.18 2.17,-0.54c0.45,-0.35 0.68,-0.92 0.68,-1.69c0,-0.81 -0.23,-1.39 -0.67,-1.74c-0.45,-0.36 -1.18,-0.54 -2.2,-0.54l-4.19,0l0,4.51m0,-7.46l4.06,0c0.87,0 1.51,-0.15 1.92,-0.45c0.41,-0.3 0.61,-0.78 0.61,-1.43c0,-0.63 -0.2,-1.09 -0.6,-1.37c-0.39,-0.29 -1.04,-0.43 -1.96,-0.43l-4.03,0l0,3.68m-3.4,10.58l0,-17.26l8.14,0c1.76,0 3.11,0.37 4.03,1.12c0.93,0.75 1.39,1.83 1.39,3.25c0,0.88 -0.17,1.61 -0.51,2.19c-0.35,0.59 -0.86,1.04 -1.55,1.36c0.89,0.36 1.56,0.88 1.99,1.56c0.45,0.67 0.67,1.51 0.67,2.52c0,1.68 -0.55,2.98 -1.64,3.89c-1.09,0.91 -2.64,1.37 -4.65,1.37l-7.87,0"/>
  <path fill="#000000" id="path242" d="m593.44,144.13l0,-17.26l3.72,0l7,11.86l0,-11.86l3.51,0l0,17.26l-3.67,0l-7.06,-11.86l0,11.86l-3.5,0"/>
  <path fill="#000000" id="path244" d="m501.83,204.13l0,-17.26l5.25,0l3.43,13.14l3.39,-13.14l5.27,0l0,17.26l-3.33,0l0,-13.92l-3.5,13.92l-3.63,0l-3.55,-13.92l0,13.92l-3.33,0"/>
  <path fill="#000000" id="path250" d="m773,141.11l0,-11.51l8.35,0l0,2l-6.01,0l0,2.45l5.5,0l0,1.97l-5.5,0l0,2.96l6.29,0l0,2.13l-8.63,0m10.24,0l0,-8.49l2.23,0l0,1c0.32,-0.41 0.69,-0.71 1.12,-0.92c0.44,-0.21 0.92,-0.31 1.45,-0.31c0.94,0 1.64,0.25 2.1,0.73c0.47,0.49 0.7,1.22 0.7,2.2l0,5.79l-2.27,0l0,-5.13c0,-0.61 -0.1,-1.05 -0.31,-1.31c-0.21,-0.26 -0.54,-0.39 -1,-0.39c-0.54,0 -0.96,0.16 -1.28,0.49c-0.31,0.31 -0.46,0.75 -0.46,1.3l0,5.04l-2.28,0m13.34,0.06c-0.21,0.01 -0.46,0.01 -0.75,0.03c-0.29,0.01 -0.47,0.02 -0.55,0.02c-0.87,0 -1.46,-0.16 -1.79,-0.49c-0.32,-0.32 -0.47,-0.97 -0.47,-1.93l0,-4.59l-1.13,0l0,-1.59l1.13,0l0,-2.32l2.25,0l0,2.32l1.31,0l0,1.59l-1.31,0l0,4.7c0,0.23 0.05,0.38 0.14,0.45c0.1,0.07 0.31,0.1 0.61,0.1l0.56,0l0,1.71m6.55,-2.64l2.27,0c-0.23,0.9 -0.69,1.6 -1.39,2.11c-0.69,0.51 -1.54,0.76 -2.54,0.76c-1.23,0 -2.2,-0.41 -2.92,-1.24c-0.72,-0.82 -1.08,-1.94 -1.08,-3.36c0,-1.39 0.35,-2.48 1.06,-3.28c0.71,-0.81 1.68,-1.21 2.91,-1.21c1.3,0 2.3,0.4 3.01,1.19c0.71,0.79 1.07,1.91 1.07,3.37c0,0.16 -0.01,0.28 -0.01,0.36c0,0.08 -0.01,0.16 -0.02,0.23l-5.67,0c0.03,0.67 0.19,1.17 0.48,1.51c0.3,0.34 0.73,0.51 1.28,0.51c0.39,0 0.71,-0.08 0.96,-0.23c0.25,-0.16 0.45,-0.4 0.59,-0.72m-3.31,-2.56l3.34,0c-0.02,-0.57 -0.17,-1.01 -0.46,-1.31c-0.28,-0.3 -0.68,-0.45 -1.22,-0.45c-0.49,0 -0.88,0.15 -1.17,0.45c-0.28,0.31 -0.44,0.74 -0.49,1.31m7.2,5.14l0,-8.49l2.11,0l0,1.45c0.3,-0.58 0.65,-1.01 1.04,-1.28c0.4,-0.28 0.87,-0.41 1.42,-0.41l0.2,0c0.05,0 0.09,0.01 0.12,0.01l0.01,2.31l-0.76,0c-0.62,0 -1.08,0.16 -1.39,0.48c-0.32,0.32 -0.47,0.8 -0.47,1.44l0,4.49l-2.28,0"/>
  <path fill="#000000" id="path252" d="m788,173l0,-15l-15,7.5l15,7.5z"/>
  <path fill="none" stroke="#000000" stroke-width="3" id="path254" stroke-miterlimit="4" d="m810.5,150.5l0,15l-30,0"/>
  <path fill="#000000" id="path274" d="m703.85,79.115c0,-0.086 0,-0.199 -0.01,-0.34c-0.01,-0.148 -0.01,-0.258 -0.01,-0.328c0,-0.688 0.07,-1.258 0.22,-1.711c0.15,-0.461 0.39,-0.891 0.72,-1.289c0.25,-0.297 0.62,-0.637 1.11,-1.02c0.5,-0.382 0.82,-0.66 0.97,-0.832c0.31,-0.351 0.53,-0.668 0.65,-0.949c0.11,-0.281 0.17,-0.59 0.17,-0.926c0,-0.742 -0.21,-1.32 -0.62,-1.734c-0.41,-0.414 -0.99,-0.621 -1.73,-0.621c-0.75,0 -1.33,0.25 -1.76,0.75c-0.42,0.492 -0.65,1.187 -0.69,2.086l-3.31,0l0,-0.364c0,-1.648 0.52,-2.96 1.56,-3.937c1.05,-0.984 2.45,-1.477 4.22,-1.477c1.8,0 3.24,0.465 4.3,1.395c1.07,0.922 1.61,2.16 1.61,3.715c0,0.547 -0.07,1.039 -0.19,1.476c-0.12,0.43 -0.3,0.825 -0.55,1.184c-0.32,0.453 -0.82,0.945 -1.49,1.477c-0.67,0.523 -1.07,0.847 -1.21,0.972c-0.29,0.289 -0.51,0.594 -0.64,0.914c-0.13,0.321 -0.19,0.703 -0.19,1.149c0,0.039 0,0.105 0.01,0.199c0.01,0.094 0.01,0.164 0.01,0.211l-3.15,0m-0.16,5.015l0,-3.433l3.45,0l0,3.433l-3.45,0m-1.97,32.23l5.81,-19.937l1.61,0l-5.84,19.937l-1.58,0"/>
  <text font-style="normal" font-weight="normal" font-size="15px" font-family="Sans" fill="#000000" stroke-width="1px" id="text3746" y="50.94333" x="204.29575" xml:space="preserve">
   <tspan y="50.94333" x="204.29575" id="tspan3748"/>
  </text>
  <text font-style="normal" font-weight="normal" font-size="15px" font-family="Sans" fill="#000000" stroke-width="1px" id="text3788" y="84.5301" x="227.75752" xml:space="preserve">
   <tspan y="84.5301" x="227.75752" id="tspan3790"/>
  </text>
  <text font-style="normal" font-weight="normal" font-size="15px" font-family="Sans" fill="#000000" stroke-width="1px" id="text3792" y="277.08743" x="357.00952" xml:space="preserve">
   <tspan y="277.08743" x="357.00952" id="tspan3794">leader key</tspan>
  </text>
  <text font-style="normal" font-weight="normal" font-size="15px" font-family="Sans" fill="#000000" stroke-width="1px" id="text3796" y="151.50334" x="8.02508" xml:space="preserve">
   <tspan y="151.50334" x="8.02508" id="tspan3798">Cmd Mode</tspan>
  </text>
  <text font-style="normal" font-weight="normal" font-size="25px" font-family="Sans" fill="#000000" stroke-width="1px" id="text3800" y="16.80435" x="69.73077" xml:space="preserve">
   <tspan y="16.80435" x="69.73077" id="tspan3802"/>
  </text>
  <text font-style="normal" font-weight="normal" font-size="25px" font-family="Sans" fill="#000000" stroke-width="1px" id="text3804" y="23.27394" x="68.60928" xml:space="preserve">
   <tspan y="23.27394" x="68.60928" id="tspan3806">1</tspan>
  </text>
  <text font-style="normal" font-weight="normal" font-size="25px" font-family="Sans" fill="#000000" stroke-width="1px" id="text3808" y="23.80604" x="132.46173" xml:space="preserve">
   <tspan y="23.80604" x="132.46173" id="tspan3810">2</tspan>
  </text>
  <text font-style="normal" font-weight="normal" font-size="25px" font-family="Sans" fill="#000000" stroke-width="1px" id="text3812" y="21.67763" x="189.92894" xml:space="preserve">
   <tspan y="21.67763" x="189.92894" id="tspan3814">3</tspan>
  </text>
  <text font-style="normal" font-weight="normal" font-size="25px" font-family="Sans" fill="#000000" stroke-width="1px" id="text3816" y="23.80604" x="248.99246" xml:space="preserve">
   <tspan y="23.80604" x="248.99246" id="tspan3818">4</tspan>
  </text>
  <text font-style="normal" font-weight="normal" font-size="25px" font-family="Sans" fill="#000000" stroke-width="1px" id="text3820" y="23.27394" x="308.58807" xml:space="preserve">
   <tspan y="23.27394" x="308.58807" id="tspan3822">5</tspan>
  </text>
  <text font-style="normal" font-weight="normal" font-size="25px" font-family="Sans" fill="#000000" stroke-width="1px" id="text3824" y="24.87025" x="366.5874" xml:space="preserve">
   <tspan y="24.87025" x="366.5874" id="tspan3826">6</tspan>
  </text>
  <text font-style="normal" font-weight="normal" font-size="25px" font-family="Sans" fill="#000000" stroke-width="1px" id="text3828" y="23.27394" x="428.31143" xml:space="preserve">
   <tspan y="23.27394" x="428.31143" id="tspan3830">7</tspan>
  </text>
  <text font-style="normal" font-weight="normal" font-size="25px" font-family="Sans" fill="#000000" stroke-width="1px" id="text3832" y="21.14552" x="485.77863" xml:space="preserve">
   <tspan y="21.14552" x="485.77863" id="tspan3834">8</tspan>
  </text>
  <text font-style="normal" font-weight="normal" font-size="25px" font-family="Sans" fill="#000000" stroke-width="1px" id="text3836" y="24.87025" x="545.90637" xml:space="preserve">
   <tspan y="24.87025" x="545.90637" id="tspan3838">9</tspan>
  </text>
  <text font-style="normal" font-weight="normal" font-size="25px" font-family="Sans" fill="#000000" stroke-width="1px" id="text3840" y="23.80604" x="605.50195" xml:space="preserve">
   <tspan y="23.80604" x="605.50195" id="tspan3842">0</tspan>
  </text>
  <text xml:space="preserve" text-anchor="middle" font-family="serif" font-size="24" id="svg_1" y="329.7069" x="427.33333" stroke-linecap="null" stroke-linejoin="null" stroke-dasharray="null" stroke-width="0" stroke="#000000" fill="#000000">emacs meta key coverage</text>
 </g>
</svg>